# xmcd
#
# Track frame offsets: 
#        150
#        10820
#        29672
#        45782
#
# Disc length: 874 seconds
#
# Revision: 0
# Processed by: cddbd v1.4PL0 Copyright (c) Steve Scherf et al.
# Submitted via: ExactAudioCopy v0.90b4
#
DISCID=23036804
DTITLE=Gary Clark - Make A Family [CD2)
DYEAR=1993
DGENRE=
TTITLE0=Make A Family
TTITLE1=We Sail On The Stormy Waters (Live)
TTITLE2=Baby Blue No. 2 (Live)
TTITLE3=Mary's Prayer (Live)
EXTD=
EXTT0=
EXTT1=
EXTT2=
EXTT3=
PLAYORDER=
